<svg xmlns="http://www.w3.org/2000/svg" width="612" height="612" viewBox="0 0 612 612">
<g>
<path d="M 421.52 472.60 C409.01,477.14 394.12,476.27 382.06,470.29 C374.69,466.64 363.11,455.10 359.70,448.00 C358.92,446.38 358.25,445.08 357.67,443.73 C353.99,435.24 353.99,425.15 354.01,322.04 C354.02,316.94 354.02,311.61 354.02,306.04 C354.03,186.96 354.12,181.18 355.93,174.19 C358.37,164.79 362.97,157.23 370.54,150.15 C386.19,135.51 407.42,132.30 426.88,141.64 C439.90,147.89 449.76,159.91 453.55,174.13 C454.75,178.65 454.98,199.52 454.98,306.00 C454.98,312.11 454.98,317.94 454.98,323.49 C454.99,426.77 454.99,436.49 451.28,444.49 C450.70,445.75 450.02,446.96 449.24,448.50 C443.45,459.86 434.00,468.07 421.52,472.60 Z" fill="rgb(44,176,163)"/>
<path d="M 224.46 472.62 C216.66,475.45 205.07,476.43 197.51,474.89 C184.47,472.23 168.82,460.47 162.98,448.95 C157.52,438.16 156.68,433.24 157.27,415.53 C159.40,351.58 196.76,293.82 253.40,266.94 C280.67,254.00 306.64,248.13 338.48,247.71 L 353.99 247.50 L 354.01 214.50 C354.03,185.36 354.26,180.65 355.93,174.19 C354.12,181.18 354.03,186.96 354.02,306.04 C354.02,311.61 354.02,316.94 354.01,322.04 C354.00,408.70 353.99,429.65 356.17,439.18 C354.13,431.70 354.00,421.31 354.00,389.90 C354.00,353.72 353.82,349.15 352.42,348.61 C350.13,347.73 340.86,347.89 330.50,348.99 C298.95,352.33 277.40,365.86 265.93,389.50 C260.76,400.15 259.14,406.97 258.04,422.50 C257.54,429.65 256.44,437.75 255.60,440.50 C253.85,446.22 248.12,456.19 244.23,460.27 C239.81,464.91 231.62,470.02 224.46,472.62 ZM 454.96 371.74 C454.98,358.46 454.98,342.58 454.98,323.49 C454.98,317.94 454.98,312.11 454.98,306.00 C454.98,279.46 454.96,258.23 454.92,241.26 C455.19,281.31 455.21,331.92 454.96,371.74 ZM 452.57 440.99 C453.34,438.23 453.86,434.42 454.21,427.69 C454.04,433.24 453.85,436.70 453.64,437.50 C453.32,438.68 452.97,439.84 452.57,440.99 ZM 383.05 470.77 C391.07,474.51 400.26,476.05 409.13,475.29 C400.30,476.14 391.34,474.65 383.05,470.77 ZM 445.55 454.62 C446.91,452.70 448.14,450.66 449.24,448.50 C449.81,447.39 450.32,446.45 450.78,445.53 C449.33,448.75 447.57,451.80 445.55,454.62 Z" fill="rgb(247,78,73)"/>

<path d="M 264.43 262.06 C260.77,263.56 257.10,265.18 253.40,266.94 C197.02,293.70 159.73,351.06 157.30,414.68 C156.97,398.15 156.98,371.49 156.99,326.75 C156.99,319.91 156.99,312.64 156.99,304.92 L 157.01 177.27 L 159.37 170.76 C165.93,152.68 180.79,140.22 199.71,136.94 C220.78,133.29 243.47,145.36 252.92,165.25 C257.59,175.08 257.93,178.89 257.96,222.87 C258.00,261.79 258.10,264.20 259.75,263.70 C260.27,263.54 262.04,262.92 264.43,262.06 ZM 291.47 253.27 C306.05,249.58 320.49,247.94 338.48,247.71 C321.50,247.93 306.19,249.70 291.47,253.27 ZM 159.19 440.21 C160.07,442.88 161.28,445.57 162.90,448.78 C162.04,447.09 161.30,445.79 160.67,444.43 C160.09,443.18 159.60,441.88 159.19,440.21 Z" fill="rgb(254,195,76)"/>


</g>
</svg>